<svg width="35" height="35" viewBox="0 0 35 35" fill="none" xmlns="http://www.w3.org/2000/svg">
<path d="M4.375 12.396C4.375 10.3572 4.375 9.33787 4.7075 8.53433C4.92737 8.00336 5.24969 7.52092 5.65606 7.11455C6.06242 6.70819 6.54487 6.38586 7.07583 6.166C7.87938 5.8335 8.89875 5.8335 10.9375 5.8335H24.0625C26.1013 5.8335 27.1206 5.8335 27.9242 6.166C28.4551 6.38586 28.9376 6.70819 29.3439 7.11455C29.7503 7.52092 30.0726 8.00336 30.2925 8.53433C30.625 9.33787 30.625 10.3572 30.625 12.396V13.4897C30.625 13.7798 30.5098 14.058 30.3046 14.2631C30.0995 14.4683 29.8213 14.5835 29.5312 14.5835H29.1667C28.3931 14.5835 27.6513 14.8908 27.1043 15.4378C26.5573 15.9848 26.25 16.7266 26.25 17.5002C26.25 18.2737 26.5573 19.0156 27.1043 19.5626C27.6513 20.1095 28.3931 20.4168 29.1667 20.4168H29.5312C29.8213 20.4168 30.0995 20.5321 30.3046 20.7372C30.5098 20.9423 30.625 21.2205 30.625 21.5106V22.6043C30.625 24.6431 30.625 25.6625 30.2925 26.466C30.0726 26.997 29.7503 27.4794 29.3439 27.8858C28.9376 28.2921 28.4551 28.6145 27.9242 28.8343C27.1206 29.1668 26.1013 29.1668 24.0625 29.1668H10.9375C8.89875 29.1668 7.87938 29.1668 7.07583 28.8343C6.54487 28.6145 6.06242 28.2921 5.65606 27.8858C5.24969 27.4794 4.92737 26.997 4.7075 26.466C4.375 25.6625 4.375 24.6431 4.375 22.6043V21.5106C4.375 21.2205 4.49023 20.9423 4.69535 20.7372C4.90047 20.5321 5.17867 20.4168 5.46875 20.4168H5.83333C6.60688 20.4168 7.34875 20.1095 7.89573 19.5626C8.44271 19.0156 8.75 18.2737 8.75 17.5002C8.75 16.7266 8.44271 15.9848 7.89573 15.4378C7.34875 14.8908 6.60688 14.5835 5.83333 14.5835H5.46875C5.17867 14.5835 4.90047 14.4683 4.69535 14.2631C4.49023 14.058 4.375 13.7798 4.375 13.4897V12.396Z" fill="#0FA958" fill-opacity="0.25"/>
<path d="M16.9109 12.4714C16.9785 12.3786 17.0672 12.3031 17.1696 12.2511C17.272 12.199 17.3852 12.1719 17.5 12.1719C17.6149 12.1719 17.7281 12.199 17.8305 12.2511C17.9329 12.3031 18.0215 12.3786 18.0892 12.4714L19.4878 14.3848C19.5779 14.508 19.7044 14.5998 19.8494 14.6473L22.0996 15.3866C22.2085 15.4224 22.3074 15.4833 22.3884 15.5644C22.4693 15.6455 22.53 15.7445 22.5655 15.8535C22.601 15.9624 22.6104 16.0782 22.5928 16.1914C22.5752 16.3047 22.5311 16.4122 22.4642 16.5052L21.0773 18.4273C20.9879 18.5508 20.9395 18.6992 20.9388 18.8516L20.9315 21.2214C20.9313 21.3362 20.904 21.4493 20.8518 21.5515C20.7996 21.6537 20.7241 21.7421 20.6313 21.8096C20.5385 21.8771 20.4311 21.9218 20.3177 21.9399C20.2044 21.9581 20.0885 21.9493 19.9792 21.9141L17.7232 21.1879C17.5781 21.1413 17.422 21.1413 17.2769 21.1879L15.0209 21.9141C14.9116 21.9493 14.7956 21.9581 14.6823 21.9399C14.569 21.9218 14.4616 21.8771 14.3688 21.8096C14.276 21.7421 14.2005 21.6537 14.1483 21.5515C14.0961 21.4493 14.0688 21.3362 14.0686 21.2214L14.0613 18.8516C14.0606 18.6992 14.0122 18.5508 13.9228 18.4273L12.5359 16.5052C12.469 16.4122 12.4249 16.3047 12.4073 16.1914C12.3897 16.0782 12.3991 15.9624 12.4346 15.8535C12.4701 15.7445 12.5308 15.6455 12.6117 15.5644C12.6927 15.4833 12.7916 15.4224 12.9005 15.3866L15.1507 14.6473C15.2957 14.5998 15.4222 14.508 15.5123 14.3848L16.9123 12.4714H16.9109Z" fill="#0FA958"/>
</svg>
